<?xml version="1.0" encoding="utf-8"?>
<!-- Generator: Adobe Illustrator 23.0.3, SVG Export Plug-In . SVG Version: 6.00 Build 0)  -->
<svg version="1.1" id="Layer_1" xmlns="http://www.w3.org/2000/svg" xmlns:xlink="http://www.w3.org/1999/xlink" x="0px" y="0px"
	 viewBox="0 0 512 512" style="enable-background:new 0 0 512 512;" xml:space="preserve">
<g>
	<g>
		<path d="M369.4,429.6H131.9c-14.3,0-25.9-11.6-25.9-25.9V205.5c0-14.3,11.6-25.9,25.9-25.9h237.5c14.3,0,25.9,11.6,25.9,25.9
			v198.2C395.3,418,383.7,429.6,369.4,429.6z M131.9,192.1c-7.4,0-13.4,6-13.4,13.4v198.2c0,7.4,6,13.4,13.4,13.4h237.5
			c7.4,0,13.4-6,13.4-13.4V205.5c0-7.4-6-13.4-13.4-13.4L131.9,192.1L131.9,192.1z"/>
	</g>
	<path d="M342.7,192.1c-3.5,0-6.3-2.8-6.3-6.3v-17.2c0-47.3-38.4-85.7-85.7-85.7S165,121.4,165,168.6v17.2c0,3.5-2.8,6.3-6.3,6.3
		s-6.3-2.8-6.3-6.3v-17.2c0-54.2,44.1-98.3,98.3-98.3s98.3,44.1,98.3,98.3v17.2C348.9,189.3,346.1,192.1,342.7,192.1z"/>
	<path d="M250.6,368.6c-10.7,0-19.3-8.7-19.3-19.3V317c-13.1-7.1-21.3-20.7-21.3-35.7c0-22.4,18.2-40.6,40.6-40.6
		c22.4,0,40.7,18.2,40.7,40.6c0,15.1-8.2,28.7-21.3,35.7v32.3C270,359.9,261.3,368.6,250.6,368.6z M250.7,253.1
		c-15.5,0-28.1,12.6-28.1,28.1c0,11.4,6.8,21.6,17.4,26c2.4,1,3.9,3.3,3.9,5.8v36.2c0,3.7,3,6.8,6.8,6.8c3.8,0,6.9-3,6.9-6.8V313
		c0-2.5,1.5-4.8,3.9-5.8c10.6-4.4,17.4-14.6,17.4-26C278.8,265.7,266.2,253.1,250.7,253.1z"/>
</g>
</svg>
