<?xml version="1.0" encoding="utf-8"?>
<!-- Generator: Adobe Illustrator 23.0.3, SVG Export Plug-In . SVG Version: 6.00 Build 0)  -->
<svg version="1.1" id="Layer_1" xmlns="http://www.w3.org/2000/svg" xmlns:xlink="http://www.w3.org/1999/xlink" x="0px" y="0px"
	 viewBox="0 0 512 512" style="enable-background:new 0 0 512 512;" xml:space="preserve">
<g>
	<g id="_x33_50._Repeat">
		<g>
			<path d="M117.5,314.7c-17.1-40.5-16.4-88.1,6-129.8c33.2-61.7,103.2-90.7,168.2-74.8l18.3-34.1c-83.8-25.3-176.7,11-219.7,91.1
				c-26.6,49.5-28.7,105.6-10.6,154.4C93.1,360.6,127.4,336.4,117.5,314.7z M431.5,188.7c-8.7-24.4-46.9-12.9-37.3,8.1
				c17.4,40.6,16.8,88.5-5.7,130.5C355.3,389,285.3,418,220.3,402l-18.3,34.1c83.8,25.3,176.7-11,219.7-91.1
				C448.6,294.9,450.4,238,431.5,188.7z M291,146.6l71.3-3.3c10.4-0.5,14.5-8.1,9.2-17.1L334.8,64c-5.3-8.9-13.5-8.8-18.4,0.4
				l-35.3,66.4C276.2,140,280.6,147,291,146.6z M221.4,365.9l-72.1,3.7c-10.4,0.5-14.5,8.2-9.1,17.1l36.6,61.3
				c5.3,8.9,13.7,8.7,18.6-0.4l35.9-66.1C236.1,372.4,231.7,365.4,221.4,365.9z"/>
		</g>
	</g>
</g>
</svg>
