<?xml version="1.0" encoding="UTF-8"?>
<svg id="Layer_1" data-name="Layer 1" xmlns="http://www.w3.org/2000/svg" xmlns:xlink="http://www.w3.org/1999/xlink" version="1.1" viewBox="0 0 300 25">
  <defs>
    <style>
      .cls-1 {
        fill: #e31221;
      }

      .cls-1, .cls-2, .cls-3, .cls-4, .cls-5, .cls-6, .cls-7, .cls-8, .cls-9, .cls-10, .cls-11, .cls-12, .cls-13, .cls-14, .cls-15, .cls-16, .cls-17, .cls-18 {
        stroke-width: 0px;
      }

      .cls-2 {
        fill: #f6a335;
      }

      .cls-19 {
        clip-path: url(#clippath);
      }

      .cls-3 {
        fill: none;
      }

      .cls-4 {
        fill: #222323;
      }

      .cls-5 {
        fill: #34a853;
      }

      .cls-20 {
        clip-path: url(#clippath-1);
      }

      .cls-21 {
        clip-path: url(#clippath-2);
      }

      .cls-6 {
        fill: #119ad7;
      }

      .cls-7 {
        fill: #000;
      }

      .cls-8 {
        fill: #4285f4;
      }

      .cls-9 {
        fill: #1a1f70;
      }

      .cls-10 {
        fill: #ea4335;
      }

      .cls-11 {
        fill: #b2fce4;
      }

      .cls-12 {
        fill: #fbbc04;
      }

      .cls-13 {
        fill: #fbc23b;
      }

      .cls-14 {
        fill: #233977;
      }

      .cls-15 {
        fill: #fff;
      }

      .cls-16 {
        fill: #f49d1e;
      }

      .cls-17 {
        fill: #ea611c;
      }

      .cls-18 {
        fill: #f4b3c7;
      }
    </style>
    <clipPath id="clippath">
      <rect class="cls-3" x="97.1" y="7.7" width="6.4" height="10.4"/>
    </clipPath>
    <clipPath id="clippath-1">
      <path class="cls-3" d="M97.8,12.9c0-2,.9-4,2.5-5.2-1.2-.9-2.6-1.4-4.1-1.4-3.7,0-6.6,2.9-6.6,6.6s2.9,6.6,6.6,6.6,3-.5,4.1-1.4c-1.6-1.2-2.5-3.1-2.5-5.2Z"/>
    </clipPath>
    <clipPath id="clippath-2">
      <path class="cls-3" d="M111.1,12.9c0,3.6-2.9,6.6-6.6,6.6s-3-.5-4.1-1.5c1.6-1.3,2.5-3.2,2.5-5.2s-.9-4-2.5-5.2c1.2-.9,2.6-1.4,4.1-1.4,3.6,0,6.6,3.1,6.6,6.7Z"/>
    </clipPath>
  </defs>
  <path class="cls-11" d="M281.1,22.9c0,.7-.6,1.2-1.3,1.2h-34.8c-.7,0-1.3-.5-1.3-1.2h0V2.6c0-.7.6-1.2,1.3-1.2h34.8c.7,0,1.2.5,1.3,1.2h0v20.3h0Z"/>
  <g>
    <g>
      <path class="cls-4" d="M272.2,11.4l-2.2,4.5h-.9l.8-1.7-1.3-2.8h.9l.8,1.9.9-1.9s.9,0,.9,0Z"/>
      <g>
        <path class="cls-4" d="M264,13c0-.5-.4-.9-.9-.9s-.9.4-.9.9.4.9.9.9c.5,0,.9-.4.9-.9M261.5,15.9v-4.5h.8v.4c.2-.3.6-.5,1-.5.9,0,1.5.7,1.5,1.6s-.7,1.6-1.5,1.6-.7-.2-1-.4v1.7h-.8Z"/>
        <path class="cls-4" d="M267.6,13c0-.5-.4-.9-.9-.9s-.9.4-.9.9.4.9.9.9c.5,0,.9-.4.9-.9M267.6,14.6v-.4c-.2.3-.6.5-1,.5-.9,0-1.5-.7-1.5-1.6s.7-1.6,1.5-1.6.7.2,1,.5v-.4h.8v3.2h-.8Z"/>
        <path class="cls-4" d="M260.1,11.7s.2-.4.7-.4.3,0,.3,0v.8s-.3-.2-.6-.1c-.3,0-.4.3-.4.6v1.9h-.8v-3.2h.8v.3Z"/>
      </g>
      <path class="cls-4" d="M278.3,11.2l-.9-.5-.9-.5c-.6-.4-1.4,0-1.4.8h0c0,.2,0,.2,0,.3l.4.2c.1,0,.3,0,.3-.2v-.3c0-.1.1-.2.3-.2l.9.5.9.5c.1,0,.1.2,0,.3l-.9.5-.9.5c-.1,0-.3,0-.3-.2h0c0-.9-.8-1.3-1.4-.9l-.9.5-.9.5c-.6.4-.6,1.2,0,1.6l.9.5.9.5c.6.4,1.4,0,1.4-.8h0c0-.2,0-.2,0-.3l-.4-.2c-.1,0-.3,0-.3.2v.3c0,.1-.1.2-.3.2l-.9-.5-.9-.5c-.1,0-.1-.2,0-.3l.9-.5.9-.5c.1,0,.3,0,.3.2h0c0,.9.8,1.3,1.4.9l.9-.5.9-.5c.6-.4.6-1.3,0-1.6Z"/>
    </g>
    <g>
      <path class="cls-4" d="M250.4,13.4c-.2.7-.8,1.2-1.6,1.2s-1.6-.7-1.6-1.6.7-1.6,1.6-1.6,1.4.5,1.6,1.2h-.8c-.1-.3-.4-.5-.8-.5-.5,0-.9.4-.9.9s.4.9.9.9.6-.2.8-.5h.8Z"/>
      <path class="cls-4" d="M250.8,14.6v-4.5h.8v4.5h-.8Z"/>
      <path class="cls-4" d="M252.8,13.2c0,.5.4.7.8.7s.6-.2.7-.4h.8c-.2.7-.8,1.1-1.6,1.1s-1.6-.7-1.6-1.6.7-1.6,1.6-1.6,1.6.7,1.6,1.6,0,.1,0,.2h-2.4ZM254.4,12.7c0-.4-.4-.7-.8-.7s-.7.2-.8.7h1.6Z"/>
      <path class="cls-4" d="M258.1,14.6v-.4c-.2.3-.6.5-1,.5-.9,0-1.5-.7-1.5-1.6s.7-1.6,1.5-1.6.7.2,1,.5v-.4h.8v3.2h-.8ZM258,13c0-.5-.4-.9-.9-.9s-.9.4-.9.9.4.9.9.9.9-.4.9-.9Z"/>
    </g>
  </g>
  <g id="SVGID">
    <path class="cls-15" d="M81.3,3.1c0-1,.8-1.7,1.8-1.7h34.3c1,0,1.8.7,1.8,1.7h0v19.3c0,1-.8,1.7-1.8,1.7h-34.3c-1,0-1.8-.7-1.8-1.7h0c0-.1,0-19.3,0-19.3Z"/>
  </g>
  <g class="cls-19">
    <rect class="cls-17" x="95.7" y="6.3" width="9.4" height="13.4"/>
  </g>
  <g class="cls-20">
    <rect class="cls-1" x="88.2" y="4.8" width="13.7" height="16.2"/>
  </g>
  <g class="cls-21">
    <rect class="cls-16" x="98.9" y="4.8" width="13.7" height="16.2"/>
  </g>
  <g>
    <path class="cls-9" d="M42.3,1.3h34.7c.7,0,1.2.5,1.2,1.2v20.3c0,.7-.5,1.2-1.2,1.2h-34.7c-.7,0-1.2-.6-1.2-1.2V2.6c.1-.7.6-1.2,1.2-1.3Z"/>
    <polygon class="cls-3" points="67.2 13.6 68.6 13.6 68.1 10.9 67.2 13.6"/>
    <polygon class="cls-15" points="57.5 9 56.4 16 58.2 16 59.4 9 57.5 9"/>
    <path class="cls-15" d="M54.8,9l-1.7,4.8-.2-1-.6-3.1.6,3.1h0c-.3-.9-.9-1.7-1.7-2.3-.4-.3-.7-.5-1.1-.8,0,.1.3.1.4.2l1.6,6h1.9l2.9-7h-2.1Z"/>
    <path class="cls-15" d="M69.4,9h-1.4c-.4,0-.7.2-.8.5l-2.8,6.5h1.9l.4-1h2.3l.2,1h1.8l-1.6-7ZM67.2,13.5l.9-2.6.5,2.6h-1.4Z"/>
    <path class="cls-15" d="M64.5,10.7h0Z"/>
    <path class="cls-15" d="M62,10.9c0-.8,1.8-.7,2.5-.3l.3-1.5c-.5-.2-1.1-.3-1.6-.3-.9,0-3.1.4-3.1,2.3s2.5,1.9,2.5,2.8-2.3.8-3,.2l-.3,1.6c.6.3,1.3.4,2,.4,1.2,0,3.1-.6,3.1-2.4s-2.4-2-2.4-2.8Z"/>
    <path class="cls-2" d="M50,9.7h0Z"/>
    <path class="cls-2" d="M52.9,12.7h0l-.6-3.1c0-.4-.5-.7-.9-.6h-2.9c0,.2.3.2.4.2s0,.1.2.1c0,.1.2.1.2.1h.2c0,.2.3.2.4.3,0,0,0,0,0,.1h0c.4.2.8.5,1.1.8.9.5,1.5,1.2,1.8,2.1Z"/>
  </g>
  <g>
    <path class="cls-18" d="M2,1.3h34.8c.7,0,1.2.5,1.3,1.2v20.2c0,.7-.6,1.2-1.3,1.2H2c-.7,0-1.2-.5-1.3-1.2V2.5c0-.7.6-1.2,1.3-1.2Z"/>
    <path class="cls-7" d="M30,14.5c-.6,0-1.1-.5-1.1-1.1s.5-1.1,1.1-1.1,1.1.5,1.1,1.1-.5,1.1-1.1,1.1ZM31.1,11.3v.3c-.4-.2-.8-.4-1.3-.4-1.2,0-2.2,1-2.2,2.2s1,2.2,2.2,2.2.9-.1,1.3-.4v.3h1.3v-4.2s-1.3,0-1.3,0ZM11.5,9.5h-1.4c0,1.1-.5,2.2-1.4,2.8l-.5.4,2.1,2.9h1.7l-1.9-2.6c.9-1,1.4-2.2,1.4-3.5M6.6,15.6h1.4v-6.1h-1.4M12.4,15.6h1.3v-6.1h-1.3M25.4,11.2c-.5,0-1,.2-1.3.6v-.5h-1.3v4.2h1.3v-2.2c0-.6.4-1,1-1s.9.3.9.9v2.2h1.3v-2.7c0-.8-.9-1.5-1.9-1.5M16.6,14.5c-.6,0-1.1-.5-1.1-1.1s.5-1.1,1.1-1.1,1.1.5,1.1,1.1c0,.7-.5,1.1-1.1,1.1ZM17.8,11.3v.3c-.4-.2-.8-.4-1.3-.4-1.2,0-2.2,1-2.2,2.2s1,2.2,2.2,2.2.9-.1,1.3-.4v.3h1.2v-4.2s-1.2,0-1.2,0ZM21,11.9v-.6h-1.3v4.2h1.3v-2c0-.7.7-1,1.2-1h0v-1.2c-.5,0-1,.3-1.2.6M33.7,14.1c-.4,0-.8.4-.8.8s.4.8.8.8.8-.4.8-.8-.3-.8-.8-.8"/>
  </g>
  <g>
    <g id="SVGID-2" data-name="SVGID">
      <path class="cls-7" d="M162.5,3c0-1,.8-1.7,1.8-1.7h34.3c1,0,1.8.7,1.8,1.7h0v19.3c0,1-.8,1.7-1.8,1.7h-34.4c-1,0-1.8-.7-1.8-1.7h0c0-.1,0-19.3,0-19.3Z"/>
    </g>
    <path class="cls-15" d="M174.7,9.4c-.3.3-.7.6-1.1.5-.1-.4.2-.9.4-1.1.3-.3.7-.5,1.1-.6.1.4,0,.9-.4,1.2M175.1,10c-.6,0-1.1.3-1.4.3s-.7-.3-1.2-.3-1.2.4-1.5.9c-.7,1.1-.2,2.8.5,3.7.3.5.7,1,1.2.9.5,0,.6-.3,1.2-.3s.7.3,1.2.3.8-.5,1.1-.9c.4-.5.5-1,.5-1,0,0-1-.4-1-1.5s.8-1.4.8-1.4c-.5-.6-1.2-.7-1.4-.7M178.6,8.7v6.8h1.1v-2.3h1.5c1.3,0,2.3-.9,2.3-2.3s-.9-2.2-2.2-2.2h-2.7ZM179.7,9.6h1.2c.9,0,1.4.5,1.4,1.4s-.5,1.4-1.5,1.4h-1.2v-2.8h.1ZM185.4,15.6c.7,0,1.3-.3,1.6-.9h0v.8h1v-3.4c0-1-.8-1.6-2-1.6s-2,.6-2,1.5h1c.1-.4.5-.7,1-.7s1,.3,1,.9v.4h-1.3c-1.2.2-1.9.7-1.9,1.6-.1.8.6,1.4,1.6,1.4ZM185.7,14.8c-.6,0-.9-.3-.9-.7s.3-.7,1-.7h1.2c0-.1,0,.3,0,.3-.1.7-.6,1.1-1.3,1.1ZM189.3,17.4c1,0,1.5-.4,1.9-1.6l1.9-5.2h-1.1l-1.2,4h0l-1.2-4h-1.1l1.8,5v.3c-.3.5-.5.7-1,.7h-.3v.8c-.1,0,.2,0,.3,0Z"/>
  </g>
  <g>
    <path class="cls-7" d="M240.7,22.8c0,.7-.6,1.2-1.3,1.2h-34.8c-.7,0-1.3-.5-1.3-1.2h0V2.5c0-.7.6-1.2,1.3-1.2h34.8c.7,0,1.2.5,1.3,1.2h0v20.3h0Z"/>
    <path class="cls-15" d="M221.1,13.1v2.7h-.9v-6.7h2.3c.6,0,1.1.2,1.5.6.4.3.6.9.6,1.4s-.2,1-.6,1.4c-.4.4-.9.6-1.5.6h-1.4ZM221.1,10v2.3h1.5c.3,0,.6-.1.8-.3.5-.4.5-1.2,0-1.6h0c-.2-.2-.5-.4-.8-.3h-1.5Z"/>
    <path class="cls-15" d="M226.5,11.1c.6,0,1.1.2,1.5.5s.6.8.6,1.4v2.8h-.8v-.6h0c-.3.5-.8.8-1.4.8s-.9-.1-1.3-.4c-.3-.3-.5-.7-.5-1.1s.2-.8.5-1.1.8-.4,1.4-.4.9.1,1.2.3v-.2c0-.3-.1-.6-.3-.8s-.5-.3-.8-.3c-.5,0-.9.2-1.1.6l-.8-.5c.4-.7,1-1,1.8-1ZM225.4,14.4c0,.2.1.4.3.6.2.1.4.2.7.2s.7-.1,1-.4c.3-.3.4-.6.4-.9-.3-.2-.6-.3-1.1-.3s-.6.1-.9.3c-.2,0-.4.3-.4.5Z"/>
    <path class="cls-15" d="M233.3,11.3l-2.9,6.6h-.9l1.1-2.3-1.9-4.3h.9l1.4,3.3h0l1.3-3.3h1Z"/>
    <path class="cls-8" d="M217.6,12.5c0-.3,0-.5-.1-.8h-3.6v1.5h2.1c-.1.5-.3.9-.8,1.2v1h1.2c.8-.7,1.2-1.7,1.2-2.9Z"/>
    <path class="cls-5" d="M213.9,16.3c1,0,1.9-.3,2.6-.9l-1.2-1c-.3.2-.8.4-1.3.4-1,0-1.9-.7-2.1-1.6h-1.3v1c.6,1.3,1.9,2.1,3.3,2.1Z"/>
    <path class="cls-12" d="M211.8,13.2c-.2-.5-.2-1,0-1.5v-1h-1.3c-.6,1.1-.6,2.4,0,3.5l1.3-1Z"/>
    <path class="cls-10" d="M213.9,10.1c.6,0,1.1.2,1.5.6h0l1.1-1.1c-.7-.6-1.6-1-2.6-1-1.5,0-2.8.8-3.4,2.1l1.3,1c.3-.9,1.1-1.6,2.1-1.6Z"/>
  </g>
  <path class="cls-13" d="M159.5,22.7c0,.7-.6,1.2-1.3,1.2h-34.8c-.7,0-1.3-.5-1.3-1.2h0V2.4c0-.7.6-1.2,1.3-1.2h34.8c.7,0,1.2.5,1.3,1.2h0v20.3h0Z"/>
  <path class="cls-14" d="M131.5,9.3h-1.9c-.1,0-.2.1-.3.2l-.8,5c0,.1.1.2.1.2h1c.1,0,.2-.1.3-.2l.2-1.3c0-.1.1-.3.3-.2h.6c1.1.1,2.1-.7,2.2-1.8v-.2c.1-.4,0-.9-.2-1.2-.3-.4-.9-.6-1.5-.5ZM131.8,11.1c-.1.7-.6.7-1.2.7h-.3l.2-1.3c0-.1.1-.1.2-.1h.1c.3,0,.6,0,.9.2.1.1.1.2.1.5Z"/>
  <path class="cls-14" d="M137.3,11.1h-.9c-.1,0-.2.1-.2.1v.2c-.1,0-.2-.1-.2-.1-.3-.3-.7-.5-1.1-.4-1.1,0-2,.8-2.1,1.9-.1.5,0,1,.4,1.4.3.3.7.5,1.2.5s.9-.2,1.3-.5v.2c-.1.1-.1.2,0,.2h.9c.1,0,.2-.1.3-.2l.5-3.2c.1,0,0,0,0,0ZM136,12.9c-.1.5-.5.9-1,.9s-.5-.1-.6-.2c-.1-.2-.2-.4-.2-.6.1-.5.5-.9,1-.9s.5.1.6.2c.2.1.3.3.2.6h0Z"/>
  <path class="cls-14" d="M142.3,11.1h-.9c-.1,0-.2,0-.2.1l-1.3,1.9-.5-1.8c0-.1-.2-.2-.2-.2h-.9c-.1,0-.2.1-.2.2l1,3-1,1.3c0,.1,0,.2.1.2h.9c.1,0,.2,0,.3-.1l3.1-4.5c-.1,0-.1,0-.2,0Z"/>
  <path class="cls-6" d="M145.3,9.3h-1.9c-.1,0-.2.1-.3.2l-.8,4.9c0,.1.1.2.1.2h1c.1,0,.2,0,.2-.1h0l.2-1.4c0-.1.1-.2.3-.2h.6c1.1.1,2.1-.7,2.2-1.8h0c.1-.5,0-1-.2-1.3-.3-.4-.8-.5-1.4-.5ZM145.6,11.1c-.1.7-.6.7-1.2.7h-.3l.2-1.3c0-.1.1-.1.2-.1h.1c.3,0,.6,0,.9.2.1.1.1.2.1.5h0Z"/>
  <path class="cls-6" d="M151.1,11.1h-1.1c0,.1-.1.3-.1.3h-.1c-.3-.4-.7-.6-1.1-.5-1.1,0-2,.8-2.1,1.9-.2.8.2,1.6,1,1.8.2,0,.3.1.5.1.5,0,.9-.2,1.3-.5v.2c-.1.1-.1.2,0,.2h.9c.1,0,.2-.1.3-.2l.5-3.2c.2,0,.1-.1,0-.1ZM149.8,12.9c-.1.5-.5.9-1,.9s-.5-.1-.6-.2c-.1-.2-.2-.4-.2-.6.1-.5.5-.9,1-.9s.5.1.6.2c.2.1.3.3.2.6h0Z"/>
  <path class="cls-6" d="M152.2,9.8l-.8,5.1c0,.1.1.2.1.2h.8c.1,0,.2-.1.3-.2l.8-4.9c0-.1-.1-.2-.1-.2h-.9c-.1-.1-.2-.1-.2,0Z"/>
</svg>